<?xml version="1.0"?>
<svg xmlns="http://www.w3.org/2000/svg" viewBox="0 0 24 24"><title/><path d="M11,12a6,6,0,1,1,6-6A6.00657,6.00657,0,0,1,11,12ZM11,1a5,5,0,1,0,5,5A5.00588,5.00588,0,0,0,11,1Z"/><path d="M11.03516,22H.5a.49971.49971,0,0,1-.5-.5V17.80908a1.98477,1.98477,0,0,1,.94238-1.69873A20.30237,20.30237,0,0,1,11,13a17.4179,17.4179,0,0,1,5.93749,1.12451.49985.49985,0,1,1-.34179.93945A16.42546,16.42546,0,0,0,11,14a19.27826,19.27826,0,0,0-9.53125,2.96094A.99093.99093,0,0,0,1,17.80908V21H11.03516a.5.5,0,0,1,0,1Z"/><path d="M18,24a6.34228,6.34228,0,0,1-5.959-3.80225.4972.4972,0,0,1,0-.3955A6.34228,6.34228,0,0,1,18,16a6.34228,6.34228,0,0,1,5.959,3.80225.4972.4972,0,0,1,0,.3955A6.34228,6.34228,0,0,1,18,24Zm-4.95117-4A5.3678,5.3678,0,0,0,18,23a5.3678,5.3678,0,0,0,4.95117-3A5.3678,5.3678,0,0,0,18,17,5.3678,5.3678,0,0,0,13.04883,20Z"/><path d="M18,22a2,2,0,1,1,2-2A2.00229,2.00229,0,0,1,18,22Zm0-3a1,1,0,1,0,1,1A1.001,1.001,0,0,0,18,19Z"/></svg>
